<svg xmlns="http://www.w3.org/2000/svg" viewBox="0 0 928.69 270.87"><defs><style>.cls-1{fill:#e66b00;}</style></defs><title>Asset 1</title><g id="Layer_2" data-name="Layer 2"><g id="Layer_1-2" data-name="Layer 1"><polygon class="cls-1" points="928.69 0 276.33 0 721.99 71.75 582.28 270.88 928.69 0"/><g id="logotype"><path class="cls-1" d="M73.61,115V125H96.74v14.83H73.61v9.86h27.15l0,15h-44V100.13h44V115Z"/><path class="cls-1" d="M159.93,115v9.91H185.6l-10.43,14.83H159.93v24.88H143.17V100.13h52.16L184.85,115Z"/><path class="cls-1" d="M260.62,132.36c0,20.71-15,34.53-35.8,34.53-18.57,0-35.81-13.82-35.81-34.53s17.18-34.52,35.81-34.52S260.62,111.68,260.62,132.36Zm-54.37.09c0,10.36,8.52,17.64,18.57,17.64,11.09,0,18.76-8.06,18.76-17.64s-6.42-18.61-18.76-18.61S206.25,123.52,206.25,132.45Z"/><path class="cls-1" d="M351.2,137.63h.17l13.49-37.51h14.3l12.68,37.51H392l9.62-37.51h20L401,164.64H383.87l-11.73-37.17H372l-13.18,37.17h-17l-19.25-64.52h20Z"/><path class="cls-1" d="M438,153.05l-4.6,11.59H415.6l23-64.52h21.88L483,164.64H465.14l-4.33-11.59Zm11.4-35.53h-.17l-6.48,22.25h13.38Z"/><path class="cls-1" d="M547.37,100.13h23.78c18,0,35.18,14.33,35.18,32.47S589,164.65,571.15,164.65H547.37Zm16.83,49.49h3.61c9.59,0,20.77-5.11,20.77-17.16C588.58,121.39,578.3,115,568,115H564.2Z"/><path class="cls-1" d="M0,164.66V100.13l24,0c14.33,0,22.82,6.54,22.82,15.72,0,6.1-4.2,11.14-7.67,12.6v0c4.58,1.45,11.39,6.81,11.39,15.15,0,12.29-10.26,21-23.28,21Zm16.78-40.52h3.74c6.11,0,10.9-1.68,10.9-6.15,0-5.43-6.16-6.31-11.91-6.31H16.77Zm0,26.14H22c4.71-.1,11.52-.81,11.52-7.89,0-7.62-8.89-7.24-14.26-7.24H16.78Z"/><path class="cls-1" d="M319.76,164.66H298.52l-14.61-24.9h0v24.91H267V100.12h22.48c15.33,0,28.07,5.09,28.07,19.28,0,12.83-7.34,16.83-16.74,20.36ZM284,128.47h4.75c4.27-.1,11.41-1.06,11.41-8.34,0-6.58-8-7-13.91-7H284Z"/><path class="cls-1" d="M541.15,164.66H519.9l-14.6-24.9h0v24.91H488.35V100.13h22.49c15.32,0,28.06,5.08,28.06,19.28,0,12.83-7.33,16.83-16.73,20.35Zm-35.79-36.19h4.74c4.28-.1,11.41-1.05,11.41-8.34,0-6.57-8-7-13.9-7h-2.25Z"/></g></g></g></svg>